<svg width="30" height="34" viewBox="0 0 30 34" fill="none" xmlns="http://www.w3.org/2000/svg">
<path fill-rule="evenodd" clip-rule="evenodd" d="M18.2963 21.97C17.9563 22.59 17.2963 23 16.5463 23H9.09634L7.99634 25H19.9963V27H7.99634C6.47634 27 5.51634 25.37 6.24634 24.03L7.59634 21.59L3.99634 14H1.99634V12H5.26634L6.20634 14H21.0063C21.7663 14 22.2463 14.82 21.8763 15.48L18.2963 21.97ZM19.3063 16H7.15634L9.52634 21H16.5463L19.3063 16ZM7.99634 28C6.89634 28 6.00634 28.9 6.00634 30C6.00634 31.1 6.89634 32 7.99634 32C9.09634 32 9.99634 31.1 9.99634 30C9.99634 28.9 9.09634 28 7.99634 28ZM16.0063 30C16.0063 28.9 16.8963 28 17.9963 28C19.0963 28 19.9963 28.9 19.9963 30C19.9963 31.1 19.0963 32 17.9963 32C16.8963 32 16.0063 31.1 16.0063 30Z" fill="white"/>
<path d="M21.1226 12.224V10.512H24.1306V7.744H25.8746V10.512H28.8666V12.224H25.8746V14.992H24.1306V12.224H21.1226Z" fill="white"/>
</svg>
