<svg width="34" height="34" viewBox="0 0 34 34" fill="none" xmlns="http://www.w3.org/2000/svg">
<path fill-rule="evenodd" clip-rule="evenodd" d="M17 0C7.61116 0 0 7.61116 0 17C0 26.3888 7.61116 34 17 34C26.3888 34 34 26.3888 34 17C34 7.61116 26.3888 0 17 0ZM13.2623 7.98813C14.2295 7.94412 14.5385 7.93335 17.0009 7.93335H16.998C19.4612 7.93335 19.7691 7.94412 20.7362 7.98813C21.7014 8.03233 22.3606 8.18514 22.9387 8.40936C23.5355 8.64075 24.0399 8.95053 24.5442 9.45487C25.0486 9.95883 25.3583 10.4647 25.5907 11.061C25.8136 11.6375 25.9666 12.2964 26.0119 13.2616C26.0553 14.2287 26.0667 14.5377 26.0667 17.0001C26.0667 19.4625 26.0553 19.7708 26.0119 20.7379C25.9666 21.7027 25.8136 22.3618 25.5907 22.9385C25.3583 23.5346 25.0486 24.0405 24.5442 24.5444C24.0404 25.0488 23.5354 25.3593 22.9392 25.5909C22.3623 25.8151 21.7027 25.9679 20.7375 26.0121C19.7704 26.0561 19.4623 26.0669 16.9997 26.0669C14.5375 26.0669 14.2287 26.0561 13.2616 26.0121C12.2965 25.9679 11.6375 25.8151 11.0606 25.5909C10.4647 25.3593 9.95882 25.0488 9.45505 24.5444C8.9509 24.0405 8.64112 23.5346 8.40935 22.9383C8.18533 22.3618 8.03251 21.7029 7.98812 20.7377C7.9443 19.7706 7.93335 19.4625 7.93335 17.0001C7.93335 14.5377 7.94468 14.2285 7.98794 13.2614C8.03138 12.2965 8.18438 11.6375 8.40916 11.0608C8.6415 10.4647 8.95128 9.95883 9.45562 9.45487C9.95958 8.95072 10.4654 8.64094 11.0618 8.40936C11.6383 8.18514 12.2971 8.03233 13.2623 7.98813Z" fill="#6F5A7E"/>
<path fill-rule="evenodd" clip-rule="evenodd" d="M16.1875 9.56721C16.3454 9.56696 16.5153 9.56704 16.6987 9.56712L17.0008 9.56721C19.4217 9.56721 19.7086 9.5759 20.6646 9.61934C21.5486 9.65976 22.0284 9.80748 22.348 9.93158C22.7711 10.0959 23.0727 10.2924 23.3899 10.6097C23.7072 10.927 23.9037 11.2293 24.0684 11.6524C24.1925 11.9716 24.3404 12.4514 24.3806 13.3354C24.4241 14.2912 24.4335 14.5783 24.4335 16.998C24.4335 19.4177 24.4241 19.7048 24.3806 20.6606C24.3402 21.5446 24.1925 22.0244 24.0684 22.3436C23.9041 22.7667 23.7072 23.068 23.3899 23.3851C23.0726 23.7025 22.7713 23.8989 22.348 24.0633C22.0287 24.1879 21.5486 24.3353 20.6646 24.3757C19.7088 24.4191 19.4217 24.4286 17.0008 24.4286C14.5798 24.4286 14.2929 24.4191 13.3371 24.3757C12.4531 24.3349 11.9733 24.1872 11.6535 24.0631C11.2304 23.8987 10.9282 23.7023 10.6109 23.385C10.2935 23.0676 10.0971 22.7661 9.93236 22.3428C9.80826 22.0236 9.66036 21.5438 9.62013 20.6598C9.57668 19.704 9.56799 19.4169 9.56799 16.9957C9.56799 14.5745 9.57668 14.2889 9.62013 13.3331C9.66055 12.4491 9.80826 11.9693 9.93236 11.6497C10.0967 11.2266 10.2935 10.9244 10.6109 10.6071C10.9282 10.2897 11.2304 10.0933 11.6535 9.92856C11.9731 9.80389 12.4531 9.65655 13.3371 9.61594C14.1735 9.57816 14.4977 9.56683 16.1875 9.56494V9.56721ZM21.8406 11.0727C21.2399 11.0727 20.7526 11.5594 20.7526 12.1603C20.7526 12.761 21.2399 13.2483 21.8406 13.2483C22.4413 13.2483 22.9286 12.761 22.9286 12.1603C22.9286 11.5596 22.4413 11.0723 21.8406 11.0723V11.0727ZM12.3447 17.0001C12.3447 14.4287 14.4295 12.3439 17.0008 12.3439H17.0007C19.572 12.3439 21.6563 14.4287 21.6563 17.0001C21.6563 19.5714 19.5722 21.6553 17.0008 21.6553C14.4295 21.6553 12.3447 19.5714 12.3447 17.0001Z" fill="#6F5A7E"/>
<path d="M17.0009 13.9779C18.6699 13.9779 20.0231 15.3309 20.0231 17.0002C20.0231 18.6692 18.6699 20.0224 17.0009 20.0224C15.3317 20.0224 13.9786 18.6692 13.9786 17.0002C13.9786 15.3309 15.3317 13.9779 17.0009 13.9779Z" fill="#6F5A7E"/>
</svg>
