<svg width="289" height="75" viewBox="0 0 289 75" fill="none" xmlns="http://www.w3.org/2000/svg">
<mask id="mask0" mask-type="alpha" maskUnits="userSpaceOnUse" x="0" y="0" width="56" height="60">
<rect width="55.9091" height="60" fill="#C4C4C4"/>
</mask>
<g mask="url(#mask0)">
<path d="M7.60449 60.3329C13.6762 57.2656 31.4663 51.1821 31.4208 60.8859C31.3753 70.5898 14.1978 63.9851 7.60449 60.3329Z" fill="#FFAE8F"/>
<path d="M9.9324 41.2604C16.7303 41.0091 35.4353 42.9111 31.3414 51.7092C27.2475 60.5073 14.3979 47.3324 9.9324 41.2604Z" fill="#FFAE8F"/>
<path d="M20.4881 25.643C27.0028 27.6006 44.0913 35.4416 37.3753 42.4461C30.6594 49.4506 22.7534 32.8318 20.4881 25.643Z" fill="#FFAE8F"/>
<path d="M36.531 15.0055C42.0111 19.0357 55.4773 32.1566 46.8002 36.5012C38.1232 40.8458 36.2525 22.5376 36.531 15.0055Z" fill="#FFAE8F"/>
<path d="M56.1297 9.40289C59.2469 15.4491 65.4768 33.1885 55.7729 33.223C46.069 33.2574 52.5319 16.0261 56.1297 9.40289Z" fill="#FFAE8F"/>
<path d="M93.4091 64.4318C93.4091 83.448 77.9934 98.8636 58.9773 98.8636C39.9611 98.8636 24.5455 83.448 24.5455 64.4318C24.5455 45.4157 39.9611 30 58.9773 30C77.9934 30 93.4091 45.4157 93.4091 64.4318Z" fill="white"/>
<path d="M86.2591 64.4244C86.2591 79.4867 73.8961 91.6971 58.6455 91.6971C43.3949 91.6971 31.0318 79.4867 31.0318 64.4244C31.0318 49.3621 43.3949 37.1516 58.6455 37.1516C73.8961 37.1516 86.2591 49.3621 86.2591 64.4244Z" fill="#FF677D"/>
<path d="M79.4409 64.4244C79.4409 75.7211 70.1305 84.8789 58.6455 84.8789C47.1605 84.8789 37.85 75.7211 37.85 64.4244C37.85 53.1276 47.1605 43.9698 58.6455 43.9698C70.1305 43.9698 79.4409 53.1276 79.4409 64.4244Z" fill="#CD6684"/>
</g>
<path d="M61.6418 60V59.5636L62.5146 59.2145C63.0964 59.0109 63.4746 58.7345 63.6491 58.3855C63.8527 58.0364 63.9546 57.5855 63.9546 57.0327V34.2109C63.9546 33.6291 63.8527 33.1636 63.6491 32.8145C63.4746 32.4655 63.0964 32.1891 62.5146 31.9855L61.6418 31.6364V31.2H72.7255V31.6364L71.9836 31.9418C71.4309 32.1455 71.0527 32.4218 70.8491 32.7709C70.6455 33.0909 70.5436 33.5418 70.5436 34.1236V44.7273H80.9727V34.1236C80.9727 33.5418 80.8709 33.0909 80.6673 32.7709C80.4927 32.4218 80.1146 32.1455 79.5327 31.9418L78.7473 31.6364V31.2H89.8746V31.6364L89.0018 31.9855C88.4491 32.1891 88.0709 32.4655 87.8673 32.8145C87.6636 33.1636 87.5618 33.6291 87.5618 34.2109V57.0327C87.5618 57.5855 87.6636 58.0364 87.8673 58.3855C88.0709 58.7345 88.4491 59.0109 89.0018 59.2145L89.8746 59.5636V60H78.7473V59.5636L79.5327 59.3018C80.1146 59.0691 80.4927 58.7927 80.6673 58.4727C80.8709 58.1236 80.9727 57.6582 80.9727 57.0764V45.6H70.5436V57.0764C70.5436 58.1527 71.0236 58.8945 71.9836 59.3018L72.7255 59.5636V60H61.6418ZM101.527 38.3564C103.418 38.3564 105.033 38.7491 106.371 39.5345C107.709 40.2909 108.727 41.3382 109.425 42.6764C110.153 43.9855 110.516 45.4836 110.516 47.1709C110.516 47.4909 110.502 47.8255 110.473 48.1745C110.444 48.4945 110.385 48.7855 110.298 49.0473H97.2944C97.3235 52.1891 97.8763 54.4582 98.9526 55.8545C100.058 57.2218 101.687 57.9055 103.84 57.9055C105.294 57.9055 106.473 57.6727 107.374 57.2073C108.276 56.7418 109.12 56.0582 109.905 55.1564L110.342 55.5491C109.44 57.1491 108.233 58.4 106.72 59.3018C105.236 60.2036 103.447 60.6545 101.353 60.6545C99.2872 60.6545 97.4544 60.2182 95.8544 59.3455C94.2544 58.4436 93.0035 57.1636 92.1017 55.5055C91.1999 53.8473 90.749 51.8691 90.749 49.5709C90.749 47.1855 91.2726 45.1636 92.3199 43.5055C93.3672 41.8182 94.7053 40.5382 96.3344 39.6655C97.9926 38.7927 99.7235 38.3564 101.527 38.3564ZM101.396 39.2291C100.553 39.2291 99.8253 39.4909 99.2144 40.0145C98.6326 40.5091 98.1672 41.4109 97.8181 42.72C97.4981 44 97.3235 45.8182 97.2944 48.1745H104.756C105.047 45.0036 104.931 42.72 104.407 41.3236C103.884 39.9273 102.88 39.2291 101.396 39.2291ZM99.0835 34.9964C99.4908 34.24 99.9563 33.3964 100.48 32.4655C101.004 31.5055 101.629 30.3418 102.356 28.9745C102.851 28.0436 103.331 27.3745 103.796 26.9673C104.262 26.5309 104.8 26.3127 105.411 26.3127C105.964 26.3127 106.444 26.5018 106.851 26.88C107.258 27.2291 107.462 27.6655 107.462 28.1891C107.462 28.7418 107.273 29.2655 106.894 29.76C106.516 30.2255 105.876 30.7782 104.974 31.4182C103.724 32.2909 102.676 33.0618 101.833 33.7309C100.989 34.3709 100.233 34.9382 99.5635 35.4327L99.0835 34.9964ZM112.14 60V59.5636L112.664 59.3891C113.711 59.04 114.235 58.3127 114.235 57.2073V33.8618C114.235 33.28 114.118 32.8436 113.885 32.5527C113.653 32.2327 113.245 32 112.664 31.8545L112.096 31.7236V31.2873L120.082 29.4109L120.605 29.8036L120.431 35.9127V50.8364C120.431 51.9127 120.431 52.9891 120.431 54.0655C120.46 55.1127 120.475 56.16 120.475 57.2073C120.475 57.7891 120.591 58.2691 120.824 58.6473C121.056 58.9964 121.449 59.2582 122.002 59.4327L122.569 59.5636V60H112.14ZM129.731 36.0873C128.742 36.0873 127.899 35.7818 127.2 35.1709C126.531 34.5309 126.197 33.7309 126.197 32.7709C126.197 31.7818 126.531 30.9818 127.2 30.3709C127.899 29.76 128.742 29.4545 129.731 29.4545C130.72 29.4545 131.549 29.76 132.219 30.3709C132.888 30.9818 133.222 31.7818 133.222 32.7709C133.222 33.7309 132.888 34.5309 132.219 35.1709C131.549 35.7818 130.72 36.0873 129.731 36.0873ZM124.582 60V59.5636L125.193 59.3891C125.775 59.2145 126.168 58.9527 126.371 58.6036C126.604 58.2545 126.72 57.7891 126.72 57.2073V43.5491C126.72 42.9382 126.604 42.4873 126.371 42.1964C126.168 41.8764 125.775 41.6582 125.193 41.5418L124.582 41.4109V40.9745L132.568 38.4L133.004 38.8364L132.873 45.0327V57.2509C132.873 57.8327 132.975 58.2982 133.179 58.6473C133.411 58.9964 133.804 59.2582 134.357 59.4327L134.793 59.5636V60H124.582ZM147.765 60.6545C145.554 60.6545 143.634 60.2036 142.005 59.3018C140.376 58.3709 139.11 57.0618 138.209 55.3745C137.336 53.6873 136.9 51.7091 136.9 49.44C136.9 47.1709 137.365 45.2073 138.296 43.5491C139.256 41.8909 140.55 40.6109 142.18 39.7091C143.838 38.8073 145.7 38.3564 147.765 38.3564C149.83 38.3564 151.678 38.8073 153.307 39.7091C154.936 40.5818 156.216 41.8473 157.147 43.5055C158.107 45.1636 158.587 47.1418 158.587 49.44C158.587 51.7382 158.136 53.7309 157.234 55.4182C156.361 57.0764 155.11 58.3709 153.481 59.3018C151.881 60.2036 149.976 60.6545 147.765 60.6545ZM147.765 59.7818C148.783 59.7818 149.598 59.4909 150.209 58.9091C150.82 58.3273 151.256 57.2945 151.518 55.8109C151.809 54.3273 151.954 52.2327 151.954 49.5273C151.954 46.7927 151.809 44.6836 151.518 43.2C151.256 41.7164 150.82 40.6836 150.209 40.1018C149.598 39.52 148.783 39.2291 147.765 39.2291C146.747 39.2291 145.918 39.52 145.278 40.1018C144.667 40.6836 144.216 41.7164 143.925 43.2C143.663 44.6836 143.532 46.7927 143.532 49.5273C143.532 52.2327 143.663 54.3273 143.925 55.8109C144.216 57.2945 144.667 58.3273 145.278 58.9091C145.918 59.4909 146.747 59.7818 147.765 59.7818ZM168.624 60.6545C166.762 60.6545 165.308 60.1891 164.26 59.2582C163.242 58.3273 162.733 56.8436 162.733 54.8073V39.8836H159.722V39.4473L160.769 39.2727C161.671 39.0691 162.442 38.7782 163.082 38.4C163.751 38.0218 164.406 37.5127 165.046 36.8727L168.624 32.9018H169.06L168.929 39.0109H173.817V39.8836H168.886V55.5927C168.886 56.6109 169.104 57.3818 169.54 57.9055C170.006 58.4291 170.588 58.6909 171.286 58.6909C171.897 58.6909 172.435 58.5455 172.9 58.2545C173.366 57.9345 173.831 57.5127 174.297 56.9891L174.733 57.4255C174.151 58.4145 173.351 59.2 172.333 59.7818C171.315 60.3636 170.078 60.6545 168.624 60.6545ZM176.1 60V59.5636L176.755 59.3891C177.336 59.2145 177.729 58.9527 177.933 58.6036C178.165 58.2545 178.282 57.8036 178.282 57.2509V43.5927C178.282 42.9527 178.165 42.4873 177.933 42.1964C177.729 41.8764 177.336 41.6582 176.755 41.5418L176.1 41.3673V40.9309L183.605 38.4L184.042 38.8364L184.435 42.5891V42.9382C184.842 42.1236 185.365 41.3818 186.005 40.7127C186.675 40.0145 187.402 39.4473 188.187 39.0109C189.002 38.5745 189.802 38.3564 190.587 38.3564C191.693 38.3564 192.536 38.6618 193.118 39.2727C193.7 39.8836 193.991 40.6545 193.991 41.5855C193.991 42.5745 193.7 43.3455 193.118 43.8982C192.565 44.4218 191.896 44.6836 191.111 44.6836C189.889 44.6836 188.813 44.0727 187.882 42.8509L187.795 42.7636C187.504 42.3564 187.169 42.1382 186.791 42.1091C186.413 42.0509 186.064 42.2255 185.744 42.6327C185.453 42.8945 185.205 43.2145 185.002 43.5927C184.827 43.9418 184.653 44.3491 184.478 44.8145V56.9891C184.478 58.1527 184.987 58.88 186.005 59.1709L187.402 59.5636V60H176.1ZM205.72 60.6545C203.509 60.6545 201.589 60.2036 199.96 59.3018C198.33 58.3709 197.065 57.0618 196.163 55.3745C195.29 53.6873 194.854 51.7091 194.854 49.44C194.854 47.1709 195.32 45.2073 196.25 43.5491C197.21 41.8909 198.505 40.6109 200.134 39.7091C201.792 38.8073 203.654 38.3564 205.72 38.3564C207.785 38.3564 209.632 38.8073 211.261 39.7091C212.89 40.5818 214.17 41.8473 215.101 43.5055C216.061 45.1636 216.541 47.1418 216.541 49.44C216.541 51.7382 216.09 53.7309 215.189 55.4182C214.316 57.0764 213.065 58.3709 211.436 59.3018C209.836 60.2036 207.93 60.6545 205.72 60.6545ZM205.72 59.7818C206.738 59.7818 207.552 59.4909 208.163 58.9091C208.774 58.3273 209.21 57.2945 209.472 55.8109C209.763 54.3273 209.909 52.2327 209.909 49.5273C209.909 46.7927 209.763 44.6836 209.472 43.2C209.21 41.7164 208.774 40.6836 208.163 40.1018C207.552 39.52 206.738 39.2291 205.72 39.2291C204.701 39.2291 203.872 39.52 203.232 40.1018C202.621 40.6836 202.17 41.7164 201.88 43.2C201.618 44.6836 201.487 46.7927 201.487 49.5273C201.487 52.2327 201.618 54.3273 201.88 55.8109C202.17 57.2945 202.621 58.3273 203.232 58.9091C203.872 59.4909 204.701 59.7818 205.72 59.7818ZM218.032 70.0364V69.6L218.555 69.4255C219.632 69.1345 220.17 68.4364 220.17 67.3309V43.5927C220.17 42.9527 220.054 42.4727 219.821 42.1527C219.617 41.8327 219.225 41.6145 218.643 41.4982L218.032 41.3673V40.9309L225.45 38.4L225.886 38.8364L226.279 40.1891C227.239 39.6073 228.301 39.1564 229.465 38.8364C230.657 38.5164 231.879 38.3564 233.13 38.3564C235.632 38.3564 237.61 39.3164 239.065 41.2364C240.548 43.1273 241.29 45.8473 241.29 49.3964C241.29 52.8873 240.475 55.6364 238.846 57.6436C237.246 59.6509 234.977 60.6545 232.039 60.6545C229.741 60.6545 227.806 60.32 226.235 59.6509V67.2C226.235 68.3636 226.759 69.0909 227.806 69.3818L228.635 69.6V70.0364H218.032ZM229.945 59.3891C231.399 59.3891 232.548 58.6327 233.392 57.12C234.265 55.6073 234.701 53.0909 234.701 49.5709C234.701 46.0509 234.294 43.5927 233.479 42.1964C232.665 40.7709 231.486 40.0582 229.945 40.0582C228.868 40.0582 227.675 40.4073 226.366 41.1055V58.6909C227.472 59.1564 228.665 59.3891 229.945 59.3891ZM254.468 38.3564C256.358 38.3564 257.973 38.7491 259.311 39.5345C260.649 40.2909 261.668 41.3382 262.366 42.6764C263.093 43.9855 263.457 45.4836 263.457 47.1709C263.457 47.4909 263.442 47.8255 263.413 48.1745C263.384 48.4945 263.326 48.7855 263.238 49.0473H250.235C250.264 52.1891 250.817 54.4582 251.893 55.8545C252.998 57.2218 254.628 57.9055 256.78 57.9055C258.235 57.9055 259.413 57.6727 260.315 57.2073C261.217 56.7418 262.06 56.0582 262.846 55.1564L263.282 55.5491C262.38 57.1491 261.173 58.4 259.66 59.3018C258.177 60.2036 256.388 60.6545 254.293 60.6545C252.228 60.6545 250.395 60.2182 248.795 59.3455C247.195 58.4436 245.944 57.1636 245.042 55.5055C244.14 53.8473 243.689 51.8691 243.689 49.5709C243.689 47.1855 244.213 45.1636 245.26 43.5055C246.308 41.8182 247.646 40.5382 249.275 39.6655C250.933 38.7927 252.664 38.3564 254.468 38.3564ZM254.337 39.2291C253.493 39.2291 252.766 39.4909 252.155 40.0145C251.573 40.5091 251.108 41.4109 250.758 42.72C250.438 44 250.264 45.8182 250.235 48.1745H257.697C257.988 45.0036 257.871 42.72 257.348 41.3236C256.824 39.9273 255.82 39.2291 254.337 39.2291Z" fill="#FF677D"/>
<path d="M288.108 47.3748C283.859 52.6867 270.202 65.6089 266.213 56.7625C262.224 47.9162 280.594 46.7906 288.108 47.3748Z" fill="#FFAE8F"/>
</svg>
