<svg width="34" height="34" viewBox="0 0 34 34" fill="none" xmlns="http://www.w3.org/2000/svg">
<path d="M17.014 0C7.61778 0 0 7.60526 0 16.986C0 24.1859 4.48104 30.3372 10.8105 32.8117C10.6565 31.4696 10.5305 29.4005 10.8665 27.9326C11.1746 26.6044 12.855 19.4885 12.855 19.4885C12.855 19.4885 12.3509 18.4679 12.3509 16.972C12.3509 14.6094 13.7232 12.8479 15.4316 12.8479C16.8879 12.8479 17.5881 13.9383 17.5881 15.2385C17.5881 16.6924 16.6639 18.8734 16.1738 20.9005C15.7677 22.5921 17.028 23.9762 18.6944 23.9762C21.7191 23.9762 24.0436 20.7887 24.0436 16.2031C24.0436 12.1349 21.1169 9.29688 16.9299 9.29688C12.0848 9.29688 9.24215 12.9178 9.24215 16.6645C9.24215 18.1184 9.80228 19.6842 10.5024 20.537C10.6425 20.7048 10.6565 20.8586 10.6145 21.0263C10.4884 21.5576 10.1944 22.7179 10.1384 22.9556C10.0683 23.2632 9.8863 23.3331 9.56423 23.1793C7.43573 22.1867 6.10542 19.097 6.10542 16.5946C6.10542 11.2401 9.99833 6.31908 17.35 6.31908C23.2454 6.31908 27.8385 10.5132 27.8385 16.1332C27.8385 21.991 24.1416 26.7023 19.0164 26.7023C17.294 26.7023 15.6697 25.8076 15.1235 24.7451C15.1235 24.7451 14.2693 27.9885 14.0593 28.7854C13.6812 30.2673 12.6449 32.1127 11.9448 33.2451C13.5412 33.7344 15.2215 34 16.986 34C26.3821 34 33.9999 26.3947 33.9999 17.014C34.0279 7.60526 26.4102 0 17.014 0Z" fill="#CD6684"/>
</svg>
